<?xml version="1.0" encoding="UTF-8"?>
<svg width="53px" height="29px" viewBox="0 0 53 29" version="1.1" xmlns="http://www.w3.org/2000/svg" xmlns:xlink="http://www.w3.org/1999/xlink">
    <!-- Generator: Sketch 53.2 (72643) - https://sketchapp.com -->
    <title>logo/visa</title>
    <desc>Created with Sketch.</desc>
    <g id="logo/visa" stroke="none" stroke-width="1" fill="none" fill-rule="evenodd">
        <g id="Visa_Inc._logo" transform="translate(0.000000, 6.000000)" fill-rule="nonzero">
            <polygon id="polygon9" fill="#00579F" points="22.3065873 17 18 17 20.6936482 1 25 1"></polygon>
            <path d="M38,0.700615932 C37.1451983,0.367643033 35.7894123,0 34.1129867,0 C29.8332908,0 26.8195639,2.24076102 26.8010792,5.44437449 C26.7655316,7.80799343 28.9588195,9.12080482 30.5992234,9.90891048 C32.275886,10.7142349 32.8458327,11.2398713 32.8458327,11.957706 C32.8287699,13.0601697 31.4909946,13.5683548 30.2432733,13.5683548 C28.5130524,13.5683548 27.5859705,13.3063509 26.1771,12.6929921 L25.6064423,12.4300575 L25,16.1241719 C26.0164248,16.5788393 27.8890732,16.9823159 29.8332908,17 C34.3805418,17 37.3409472,14.7939091 37.3760209,11.379948 C37.3933207,9.50659732 36.2351794,8.07116069 33.7383149,6.89819327 C32.2225645,6.1452231 31.2942978,5.63750342 31.2942978,4.86708185 C31.3120716,4.1666986 32.0794261,3.44932932 33.7904514,3.44932932 C35.1993219,3.41419381 36.2344684,3.74670134 37.0186488,4.07944155 L37.4106205,4.25418834 L38,0.700615932 L38,0.700615932 L38,0.700615932 Z" id="path11" fill="#00579F"></path>
            <path d="M44.4675627,11.3319147 C44.8118228,10.4127229 46.1365153,6.85518148 46.1365153,6.85518148 C46.1191423,6.88934293 46.4800896,5.9190221 46.6865085,5.32334601 L46.9786495,6.70202056 C46.9786495,6.70202056 47.7702647,10.5319486 47.9421661,11.3319147 C47.2888493,11.3319147 45.2932382,11.3319147 44.4675627,11.3319147 L44.4675627,11.3319147 Z M49.6275774,1 L46.3941389,1 C45.3970192,1 44.6394642,1.28912801 44.2092534,2.32754549 L38,17 L42.3862296,17 C42.3862296,17 43.1083528,15.0251969 43.263567,14.5998756 C43.7447538,14.5998756 48.0116582,14.5998756 48.6306862,14.5998756 C48.7506972,15.1616164 49.1294747,17 49.1294747,17 L53,17 L49.6275774,1 L49.6275774,1 L49.6275774,1 Z" id="path13" fill="#00579F"></path>
            <path d="M15.502047,1 L11.336259,11.9220513 L10.8810439,9.70693145 C10.1108768,7.15097171 7.69546878,4.37397557 5,2.99317754 L8.81571194,17 L13.3138976,17 L20,1 L15.502047,1 L15.502047,1 L15.502047,1 Z" id="path15" fill="#00579F"></path>
            <path d="M6.69497252,0 L0.0677989008,0 L0,0.334495045 C5.16960987,1.7082889 8.59334174,5.01976644 10,9 L8.55932967,1.39158366 C8.32214614,0.334260969 7.59325164,0.03487737 6.69497252,0 L6.69497252,0 Z" id="path17" fill="#FAA61A"></path>
        </g>
    </g>
</svg>