<svg xmlns="http://www.w3.org/2000/svg" xmlns:xlink="http://www.w3.org/1999/xlink" width="389" height="395" viewBox="0 0 389 395">
  <defs>
    <clipPath id="clip-login_bg">
      <rect width="389" height="395"/>
    </clipPath>
  </defs>
  <g id="login_bg" clip-path="url(#clip-login_bg)">
    <g id="Group_1" data-name="Group 1" transform="translate(4 3.67)">
      <g id="Group_11091" data-name="Group 11091">
        <path id="Path_30034" data-name="Path 30034" d="M574.278,218.453a52.494,52.494,0,1,0-73.122,48.234V364.9h41.258V266.686A52.49,52.49,0,0,0,574.278,218.453Z" transform="translate(-334.726 -15.971)" fill="#fce5ca"/>
        <g id="Group_10523" data-name="Group 10523">
          <path id="Path_30035" data-name="Path 30035" d="M825.205,156.831c-50.978,0-96.794,42.93-106.559,99.89l-.278,1.535H585.4l-.279-1.535c-9.765-56.96-55.581-99.89-106.559-99.89h-16.52v387.66h30.071V188.261l2.273.558c35.393,8.41,62.117,44.723,62.117,84.483a15.037,15.037,0,0,0,15.027,15.027h160.7A15.037,15.037,0,0,0,747.263,273.3c0-39.76,26.7-76.073,62.1-84.483l2.292-.558v356.23h30.072V156.831Z" transform="translate(-462.045 -156.831)" fill="#fce5ca"/>
          <path id="Path_30036" data-name="Path 30036" d="M642.127,175.531a16.091,16.091,0,0,0-21.964,5.848,26.276,26.276,0,0,1-45.495,0,19.774,19.774,0,0,0-31.587,0,26.3,26.3,0,0,1-45.518,0A16.062,16.062,0,1,0,469.774,197.5a58.164,58.164,0,0,0,89.1,14.412,58.15,58.15,0,0,0,89.1-14.436A16.059,16.059,0,0,0,642.127,175.531Z" transform="translate(-369.034 147.203)" fill="#fce5ca"/>
        </g>
      </g>
    </g>
  </g>
</svg>
