<svg id="Group_10637" data-name="Group 10637" xmlns="http://www.w3.org/2000/svg" width="133.129" height="98" viewBox="0 0 133.129 98">
  <g id="Group_10522" data-name="Group 10522" transform="translate(0 77.798)">
    <path id="Path_30022" data-name="Path 30022" d="M451.864,183.516a1.786,1.786,0,0,1,1.285-3.067,1.677,1.677,0,0,1,1.782,1.785,1.815,1.815,0,0,1-3.067,1.281Zm-.026,16.635V187.317a.247.247,0,0,1,.28-.28h2.118a.246.246,0,0,1,.277.28V200.15a.245.245,0,0,1-.277.277h-2.118A.246.246,0,0,1,451.837,200.15Z" transform="translate(-451.363 -180.449)" fill="#e75f25"/>
    <path id="Path_30023" data-name="Path 30023" d="M462.341,182.13a6.014,6.014,0,0,1,1.321,4.055,5.885,5.885,0,0,1-1.281,3.956,4.213,4.213,0,0,1-3.37,1.505h-2.619a.1.1,0,0,0-.112.112v8.08a.246.246,0,0,1-.28.277h-2.118a.245.245,0,0,1-.277-.277V180.862a.245.245,0,0,1,.277-.277h4.991A4.345,4.345,0,0,1,462.341,182.13Zm-2.049,6.493a3.733,3.733,0,0,0,.7-2.382,3.9,3.9,0,0,0-.7-2.438,2.2,2.2,0,0,0-1.838-.906h-2.062a.1.1,0,0,0-.112.112v6.38a.1.1,0,0,0,.112.112h2.062A2.23,2.23,0,0,0,460.292,188.622Z" transform="translate(-446.22 -180.137)" fill="#e75f25"/>
    <path id="Path_30024" data-name="Path 30024" d="M466.255,182.905h-6.269a.1.1,0,0,0-.112.112v6.044a.1.1,0,0,0,.112.112h3.844a.249.249,0,0,1,.28.28v1.756a.247.247,0,0,1-.28.277h-3.844a.1.1,0,0,0-.112.112v6.074a.1.1,0,0,0,.112.112h6.269a.248.248,0,0,1,.28.28v1.756a.247.247,0,0,1-.28.277h-8.779a.245.245,0,0,1-.277-.277V180.873a.246.246,0,0,1,.277-.28h8.779a.248.248,0,0,1,.28.28v1.756A.247.247,0,0,1,466.255,182.905Z" transform="translate(-437.973 -180.119)" fill="#e75f25"/>
    <path id="Path_30025" data-name="Path 30025" d="M471.085,180.873v1.756a.246.246,0,0,1-.28.277h-3.65a.1.1,0,0,0-.112.112v16.8a.245.245,0,0,1-.277.277h-2.118a.246.246,0,0,1-.28-.277v-16.8a.1.1,0,0,0-.112-.112H460.8a.246.246,0,0,1-.28-.277v-1.756a.247.247,0,0,1,.28-.28h10A.247.247,0,0,1,471.085,180.873Z" transform="translate(-430.348 -180.119)" fill="#e75f25"/>
    <path id="Path_30026" data-name="Path 30026" d="M474.449,198.7a5.184,5.184,0,0,1-3.775,1.393h-4.651a.246.246,0,0,1-.28-.277V180.873a.247.247,0,0,1,.28-.28h4.262a5.627,5.627,0,0,1,3.969,1.324,4.982,4.982,0,0,1,1.436,3.857,4.28,4.28,0,0,1-2.148,4.154c-.092.056-.1.1-.026.138a4.61,4.61,0,0,1,1.742,1.868,6.083,6.083,0,0,1,.626,2.843A5.212,5.212,0,0,1,474.449,198.7Zm-6.031-15.686v5.906a.1.1,0,0,0,.112.112h1.782a2.616,2.616,0,0,0,2.036-.794,3.176,3.176,0,0,0,.725-2.214,3.369,3.369,0,0,0-.725-2.3,2.568,2.568,0,0,0-2.036-.823H468.53A.1.1,0,0,0,468.418,183.017Zm4.055,13.874a3.66,3.66,0,0,0,.738-2.451,3.923,3.923,0,0,0-.725-2.52,2.424,2.424,0,0,0-2.006-.906h-1.95c-.076,0-.112.036-.112.109v6.522a.1.1,0,0,0,.112.112h1.924A2.52,2.52,0,0,0,472.473,196.892Z" transform="translate(-418.376 -180.119)" fill="#e75f25"/>
    <path id="Path_30027" data-name="Path 30027" d="M470.709,198.8a5.719,5.719,0,0,1-1.38-4v-13.93a.247.247,0,0,1,.28-.28h2.118a.246.246,0,0,1,.277.28v14.21a3.258,3.258,0,0,0,.656,2.115,2.1,2.1,0,0,0,1.713.81,2.126,2.126,0,0,0,1.743-.81,3.258,3.258,0,0,0,.655-2.115v-14.21a.246.246,0,0,1,.277-.28h2.118a.247.247,0,0,1,.28.28V194.8a5.681,5.681,0,0,1-1.393,4,5.2,5.2,0,0,1-7.342,0Z" transform="translate(-410.149 -180.119)" fill="#e75f25"/>
    <path id="Path_30028" data-name="Path 30028" d="M474.365,199.1a4.938,4.938,0,0,1-1.351-3.607v-.725a.247.247,0,0,1,.28-.28h2.062a.246.246,0,0,1,.277.28v.586a3.08,3.08,0,0,0,.642,2.046,2.045,2.045,0,0,0,1.644.768,2.12,2.12,0,0,0,1.657-.738,3.141,3.141,0,0,0,.306-3.36,4.082,4.082,0,0,0-.919-1.1c-.379-.323-1-.8-1.851-1.433a27.536,27.536,0,0,1-2.23-1.812,6.775,6.775,0,0,1-1.367-1.812,5.279,5.279,0,0,1-.557-2.48,4.805,4.805,0,0,1,1.337-3.581,5.227,5.227,0,0,1,7.062.1,5.182,5.182,0,0,1,1.354,3.732v.7a.246.246,0,0,1-.28.277h-2.062a.245.245,0,0,1-.277-.277v-.754a3.037,3.037,0,0,0-.642-2.019,2.075,2.075,0,0,0-1.67-.764,2.039,2.039,0,0,0-1.591.682,2.754,2.754,0,0,0-.613,1.907,2.914,2.914,0,0,0,.613,1.881,13.24,13.24,0,0,0,2.368,2.049q1.675,1.255,2.523,2.032a5.817,5.817,0,0,1,1.308,1.716,4.963,4.963,0,0,1,.461,2.214,5.159,5.159,0,0,1-1.364,3.749,5.247,5.247,0,0,1-7.122.026Z" transform="translate(-401.824 -180.275)" fill="#e75f25"/>
    <path id="Path_30029" data-name="Path 30029" d="M476.553,199.82V180.873a.247.247,0,0,1,.28-.28h2.118a.246.246,0,0,1,.277.28V199.82a.245.245,0,0,1-.277.277h-2.118A.246.246,0,0,1,476.553,199.82Z" transform="translate(-393.578 -180.119)" fill="#e75f25"/>
    <path id="Path_30030" data-name="Path 30030" d="M486.322,180.593h2.088a.248.248,0,0,1,.28.28V199.82a.247.247,0,0,1-.28.277h-2.4a.305.305,0,0,1-.306-.221l-4.733-12.735a.072.072,0,0,0-.086-.043.067.067,0,0,0-.056.069l.03,12.652a.247.247,0,0,1-.28.277h-2.118a.244.244,0,0,1-.276-.277V180.873a.245.245,0,0,1,.276-.28h2.369a.308.308,0,0,1,.306.224l4.766,12.731c.017.056.046.082.082.069s.056-.04.056-.1V180.873A.247.247,0,0,1,486.322,180.593Z" transform="translate(-389.832 -180.119)" fill="#e75f25"/>
    <path id="Path_30031" data-name="Path 30031" d="M491.25,182.905h-6.268a.1.1,0,0,0-.112.112v6.044a.1.1,0,0,0,.112.112h3.844a.249.249,0,0,1,.28.28v1.756a.247.247,0,0,1-.28.277h-3.844a.1.1,0,0,0-.112.112v6.074a.1.1,0,0,0,.112.112h6.268a.248.248,0,0,1,.28.28v1.756a.247.247,0,0,1-.28.277h-8.775a.246.246,0,0,1-.28-.277V180.873a.247.247,0,0,1,.28-.28h8.775a.248.248,0,0,1,.28.28v1.756A.247.247,0,0,1,491.25,182.905Z" transform="translate(-380.635 -180.119)" fill="#e75f25"/>
    <path id="Path_30032" data-name="Path 30032" d="M486.807,199.1a4.925,4.925,0,0,1-1.351-3.607v-.725a.246.246,0,0,1,.277-.28H487.8a.247.247,0,0,1,.28.28v.586a3.08,3.08,0,0,0,.642,2.046,2.043,2.043,0,0,0,1.64.768,2.126,2.126,0,0,0,1.66-.738,3.141,3.141,0,0,0,.306-3.36,4.2,4.2,0,0,0-.919-1.1c-.382-.323-1-.8-1.854-1.433a28.035,28.035,0,0,1-2.227-1.812,6.779,6.779,0,0,1-1.367-1.812,5.24,5.24,0,0,1-.557-2.48,4.806,4.806,0,0,1,1.337-3.581,5.227,5.227,0,0,1,7.062.1,5.18,5.18,0,0,1,1.35,3.732v.7a.244.244,0,0,1-.277.277h-2.062a.246.246,0,0,1-.28-.277v-.754a3.053,3.053,0,0,0-.639-2.019,2.078,2.078,0,0,0-1.673-.764,2.037,2.037,0,0,0-1.588.682,2.754,2.754,0,0,0-.613,1.907,2.913,2.913,0,0,0,.613,1.881A13.243,13.243,0,0,0,491,189.36q1.67,1.255,2.523,2.032a5.872,5.872,0,0,1,1.308,1.716,4.963,4.963,0,0,1,.461,2.214,5.146,5.146,0,0,1-1.367,3.749,5.243,5.243,0,0,1-7.118.026Z" transform="translate(-373.28 -180.275)" fill="#e75f25"/>
    <path id="Path_30033" data-name="Path 30033" d="M490.183,199.1a4.924,4.924,0,0,1-1.351-3.607v-.725a.246.246,0,0,1,.277-.28h2.062a.247.247,0,0,1,.28.28v.586a3.1,3.1,0,0,0,.639,2.046,2.049,2.049,0,0,0,1.644.768,2.131,2.131,0,0,0,1.66-.738,3.159,3.159,0,0,0,.306-3.36,4.2,4.2,0,0,0-.919-1.1c-.382-.323-1-.8-1.854-1.433a28.029,28.029,0,0,1-2.227-1.812,6.777,6.777,0,0,1-1.367-1.812,5.238,5.238,0,0,1-.557-2.48,4.806,4.806,0,0,1,1.337-3.581,5.228,5.228,0,0,1,7.062.1,5.18,5.18,0,0,1,1.351,3.732v.7a.245.245,0,0,1-.277.277h-2.062a.246.246,0,0,1-.28-.277v-.754a3.052,3.052,0,0,0-.639-2.019,2.077,2.077,0,0,0-1.673-.764,2.037,2.037,0,0,0-1.588.682,2.754,2.754,0,0,0-.613,1.907,2.913,2.913,0,0,0,.613,1.881,13.244,13.244,0,0,0,2.368,2.049q1.67,1.255,2.52,2.032a5.83,5.83,0,0,1,1.311,1.716,4.963,4.963,0,0,1,.461,2.214,5.16,5.16,0,0,1-1.367,3.749,5.243,5.243,0,0,1-7.118.026Z" transform="translate(-365.538 -180.275)" fill="#e75f25"/>
  </g>
  <g id="Group_10524" data-name="Group 10524" transform="translate(35.186 0)">
    <path id="Path_30034" data-name="Path 30034" d="M484.312,173.469a7.51,7.51,0,1,0-10.462,6.9v14.052h5.9V180.37A7.51,7.51,0,0,0,484.312,173.469Z" transform="translate(-445.423 -135.891)" fill="#e75f25"/>
    <g id="Group_10523" data-name="Group 10523">
      <path id="Path_30035" data-name="Path 30035" d="M522.071,156.831c-8.426,0-16,7.1-17.613,16.51l-.046.254H482.435l-.046-.254c-1.614-9.414-9.187-16.51-17.613-16.51h-2.731V220.9h4.97V162.026l.376.092c5.85,1.39,10.267,7.392,10.267,13.963a2.485,2.485,0,0,0,2.484,2.484H506.7a2.485,2.485,0,0,0,2.484-2.484c0-6.572,4.414-12.573,10.264-13.963l.379-.092V220.9H524.8V156.831Z" transform="translate(-462.045 -156.831)" fill="#e75f25"/>
      <path id="Path_30036" data-name="Path 30036" d="M492.576,173.678a2.3,2.3,0,0,0-3.143.837,3.759,3.759,0,0,1-6.509,0,2.829,2.829,0,0,0-4.519,0,3.762,3.762,0,0,1-6.512,0,2.3,2.3,0,1,0-3.976,2.306,8.322,8.322,0,0,0,12.748,2.062,8.32,8.32,0,0,0,12.748-2.065A2.3,2.3,0,0,0,492.576,173.678Z" transform="translate(-449.286 -118.895)" fill="#e75f25"/>
    </g>
  </g>
</svg>
