<?xml version="1.0" encoding="UTF-8"?>
<svg width="53px" height="29px" viewBox="0 0 53 29" version="1.1" xmlns="http://www.w3.org/2000/svg" xmlns:xlink="http://www.w3.org/1999/xlink">
    <!-- Generator: Sketch 53.2 (72643) - https://sketchapp.com -->
    <title>logo/jcb</title>
    <desc>Created with Sketch.</desc>
    <defs>
        <linearGradient x1="-57.5270968%" y1="50.1241953%" x2="232.39121%" y2="50.1241953%" id="linearGradient-1">
            <stop stop-color="#007940" offset="0%"></stop>
            <stop stop-color="#00873F" offset="22.85%"></stop>
            <stop stop-color="#40A737" offset="74.33%"></stop>
            <stop stop-color="#5CB531" offset="100%"></stop>
        </linearGradient>
        <linearGradient x1="0.182516704%" y1="49.95997%" x2="100.273441%" y2="49.95997%" id="linearGradient-2">
            <stop stop-color="#007940" offset="0%"></stop>
            <stop stop-color="#00873F" offset="22.85%"></stop>
            <stop stop-color="#40A737" offset="74.33%"></stop>
            <stop stop-color="#5CB531" offset="100%"></stop>
        </linearGradient>
        <linearGradient x1="-62.8015845%" y1="49.8578253%" x2="253.671294%" y2="49.8578253%" id="linearGradient-3">
            <stop stop-color="#007940" offset="0%"></stop>
            <stop stop-color="#00873F" offset="22.85%"></stop>
            <stop stop-color="#40A737" offset="74.33%"></stop>
            <stop stop-color="#5CB531" offset="100%"></stop>
        </linearGradient>
        <linearGradient x1="0.175556793%" y1="50.0058048%" x2="101.808162%" y2="50.0058048%" id="linearGradient-4">
            <stop stop-color="#1F286F" offset="0%"></stop>
            <stop stop-color="#004E94" offset="47.51%"></stop>
            <stop stop-color="#0066B1" offset="82.61%"></stop>
            <stop stop-color="#006FBC" offset="100%"></stop>
        </linearGradient>
        <linearGradient x1="-0.575855512%" y1="49.9142191%" x2="98.13299%" y2="49.9142191%" id="linearGradient-5">
            <stop stop-color="#6C2C2F" offset="0%"></stop>
            <stop stop-color="#882730" offset="17.35%"></stop>
            <stop stop-color="#BE1833" offset="57.31%"></stop>
            <stop stop-color="#DC0436" offset="85.85%"></stop>
            <stop stop-color="#E60039" offset="100%"></stop>
        </linearGradient>
    </defs>
    <g id="logo/jcb" stroke="none" stroke-width="1" fill="none" fill-rule="evenodd">
        <g id="JCB_logo" transform="translate(8.000000, 0.000000)" fill-rule="nonzero">
            <path d="M38,23.1539683 C38,26.3761905 35.3520782,29 32.1002445,29 L0,29 L0,5.84603175 C0,2.62380952 2.64792176,0 5.8997555,0 L38,0 L38,23.1539683 Z" id="path6325" fill="#FFFFFF"></path>
            <g id="g6327" transform="translate(25.000000, 2.000000)">
                <path d="M2.2,15.1136364 L4.76666667,15.1136364 C4.84,15.1136364 5.01111111,15.0909091 5.08444444,15.0909091 C5.57333333,15 5.98888889,14.5909091 5.98888889,14.0227273 C5.98888889,13.4772727 5.57333333,13.0681818 5.08444444,12.9545455 C5.01111111,12.9318182 4.86444444,12.9318182 4.76666667,12.9318182 L2.2,12.9318182 L2.2,15.1136364 Z" id="path6338" fill="url(#linearGradient-1)"></path>
                <path d="M4.47333333,0.0454545455 C2.02888889,0.0454545455 0.0244444444,1.88636364 0.0244444444,4.18181818 L0.0244444444,8.47727273 L6.30666667,8.47727273 C6.45333333,8.47727273 6.62444444,8.47727273 6.74666667,8.5 C8.16444444,8.56818182 9.21555556,9.25 9.21555556,10.4318182 C9.21555556,11.3636364 8.50666667,12.1590909 7.18666667,12.3181818 L7.18666667,12.3636364 C8.62888889,12.4545455 9.72888889,13.2045455 9.72888889,14.3636364 C9.72888889,15.6136364 8.50666667,16.4318182 6.89333333,16.4318182 L2.58852978e-14,16.4318182 L2.58852978e-14,24.8409091 L6.52666667,24.8409091 C8.97111111,24.8409091 10.9755556,23 10.9755556,20.7045455 L10.9755556,0.0454545455 L4.47333333,0.0454545455 Z" id="path6349" fill="url(#linearGradient-2)"></path>
                <path d="M5.67111111,10.7045455 C5.67111111,10.1590909 5.25555556,9.79545455 4.76666667,9.72727273 C4.71777778,9.72727273 4.59555556,9.70454545 4.52222222,9.70454545 L2.2,9.70454545 L2.2,11.7045455 L4.52222222,11.7045455 C4.59555556,11.7045455 4.74222222,11.7045455 4.76666667,11.6818182 C5.25555556,11.6136364 5.67111111,11.25 5.67111111,10.7045455 L5.67111111,10.7045455 Z" id="path6360" fill="url(#linearGradient-3)"></path>
            </g>
            <path d="M5.48329621,2 C3.03340757,2 1.02449889,3.85779817 1.02449889,6.17431193 L1.02449889,16.4724771 C2.27394209,17.0458716 3.57238307,17.412844 4.87082405,17.412844 C6.4142539,17.412844 7.24721604,16.5412844 7.24721604,15.3486239 L7.24721604,10.4862385 L11.0690423,10.4862385 L11.0690423,15.3256881 C11.0690423,17.206422 9.81959911,18.7431193 5.58129176,18.7431193 C3.00890869,18.7431193 1,18.2155963 1,18.2155963 L1,27 L7.54120267,27 C9.99109131,27 12,25.1422018 12,22.8256881 L12,2 L5.48329621,2 Z" id="path6371" fill="url(#linearGradient-4)"></path>
            <path d="M17.4587973,2 C15.0089087,2 13,3.8543956 13,6.16666667 L13,11.6153846 C14.1269488,10.7225275 16.0868597,10.1501832 19.247216,10.2875458 C20.9376392,10.3562271 22.7505568,10.7912088 22.7505568,10.7912088 L22.7505568,12.5540293 C21.844098,12.1190476 20.766147,11.7298535 19.3697105,11.6382784 C16.9688196,11.478022 15.5233853,12.5769231 15.5233853,14.5 C15.5233853,16.4459707 16.9688196,17.5448718 19.3697105,17.3617216 C20.766147,17.2701465 21.844098,16.8580586 22.7505568,16.4459707 L22.7505568,18.2087912 C22.7505568,18.2087912 20.9621381,18.6437729 19.247216,18.7124542 C16.0868597,18.8498168 14.1269488,18.2774725 13,17.3846154 L13,27 L19.5412027,27 C21.9910913,27 24,25.1456044 24,22.8333333 L24,2 L17.4587973,2 Z" id="path6384" fill="url(#linearGradient-5)"></path>
        </g>
    </g>
</svg>