<?xml version="1.0" encoding="UTF-8"?>
<svg width="53px" height="29px" viewBox="0 0 53 29" version="1.1" xmlns="http://www.w3.org/2000/svg" xmlns:xlink="http://www.w3.org/1999/xlink">
    <!-- Generator: Sketch 53.2 (72643) - https://sketchapp.com -->
    <title>logo/master</title>
    <desc>Created with Sketch.</desc>
    <g id="logo/master" stroke="none" stroke-width="1" fill="none" fill-rule="evenodd">
        <g transform="translate(7.000000, 3.000000)" fill-rule="nonzero" id="MasterCard_Logo">
            <g>
                <g id="g10305">
                    <path d="M38.7625652,11.5 C38.7643922,17.7878659 33.588777,22.8861564 27.2026473,22.8878268 C20.816387,22.8893687 15.6385533,17.793648 15.6368568,11.5057821 C15.6368568,11.5037263 15.6368568,11.5020559 15.6368568,11.5 C15.6351603,5.21226257 20.8107755,0.113715084 27.1966443,0.112044693 C33.5829045,0.110374302 38.7608688,5.20635196 38.7625652,11.4942179 C38.7625652,11.4961453 38.7625652,11.4979441 38.7625652,11.5 Z" id="path2268" fill="#FF9900"></path>
                    <path d="M11.6145973,0.115 C5.26631245,0.154703911 0.126193139,5.24001676 0.126193139,11.5 C0.126193139,17.7843966 5.30637584,22.8848715 11.6891126,22.8848715 C14.6847315,22.8848715 17.4153057,21.7608268 19.4700224,19.918514 C19.4698919,19.918514 19.4696309,19.918257 19.4691089,19.918 L19.4715884,19.918 C19.8923192,19.5404916 20.2847315,19.1331732 20.6454325,18.6988715 L18.2764728,18.6988715 C17.9601417,18.322648 17.672651,17.9306201 17.4143922,17.5261285 L21.5000746,17.5261285 C21.7485459,17.1346145 21.9735272,16.728067 22.1731916,16.307 L16.7398397,16.307 C16.5546607,15.9161285 16.3938852,15.5163911 16.2565996,15.1108715 L22.6569538,15.1108715 C23.0427107,13.9760335 23.2520321,12.7619162 23.2520321,11.4998715 C23.2520321,10.6631341 23.1598993,9.84734078 22.9855518,9.06187151 L15.91717,9.06187151 C16.0047353,8.65763687 16.1152685,8.25828492 16.2470731,7.86587151 L22.6497763,7.86587151 C22.5066182,7.44827374 22.3403617,7.04134078 22.1512677,6.64687151 L16.7391872,6.64687151 C16.9344146,6.23621229 17.1556115,5.83673184 17.4026473,5.451 L21.4853281,5.451 C21.2136279,5.0247933 20.9129567,4.61760335 20.5878822,4.23187151 L18.3115772,4.23187151 C18.6635347,3.82403911 19.0509881,3.43997765 19.4715884,3.08187151 C17.4167412,1.23930168 14.685384,0.115 11.6891126,0.115 C11.6641872,0.115 11.6395227,0.114871508 11.6145973,0.115 Z" id="path1350" fill="#CC0000"></path>
                    <path d="M37.8364747,17.4517318 C37.9387023,17.4517318 38.0381726,17.4781395 38.13531,17.5301097 C38.2328716,17.58208 38.3079516,17.6570777 38.3622467,17.7544691 C38.4165418,17.8508041 38.4436894,17.9524207 38.4436894,18.0576288 C38.4436894,18.1615693 38.4167539,18.2621296 38.3633072,18.3584646 C38.3100725,18.4545885 38.2349925,18.5295862 38.1382793,18.5830352 C38.0426265,18.6356393 37.9414594,18.6622582 37.8362626,18.6622582 C37.7310658,18.6622582 37.6301108,18.6356393 37.5338218,18.5830352 C37.4373206,18.5293749 37.3626648,18.4547997 37.3083697,18.3584646 C37.2549229,18.2621296 37.2284116,18.1615693 37.2284116,18.0576288 C37.2284116,17.9524207 37.2553471,17.8508041 37.3098543,17.7544691 C37.3645736,17.6570777 37.4400778,17.5827137 37.5370031,17.5301097 C37.6349889,17.4781395 37.7344592,17.4517318 37.8364747,17.4517318 M37.8364747,17.5520809 C37.7514265,17.5520809 37.668287,17.574052 37.5870564,17.6177831 C37.5064621,17.6615142 37.4434713,17.7234137 37.3980839,17.805383 C37.3520603,17.8860847 37.3291546,17.9697442 37.3291546,18.0576288 C37.3291546,18.1446684 37.3516361,18.2287503 37.395963,18.308607 C37.4413504,18.3882525 37.5041291,18.4507858 37.5842993,18.4955731 C37.6651057,18.5401492 37.7488814,18.5621204 37.8362626,18.5621204 C37.924068,18.5621204 38.0080558,18.5401492 38.0884381,18.4955731 C38.1686082,18.4507858 38.2311749,18.3882525 38.2759259,18.308607 C38.3202528,18.2287503 38.3423102,18.1448796 38.3423102,18.0576288 C38.3423102,17.9697442 38.3198286,17.8858735 38.2742292,17.805383 C38.229054,17.7234137 38.165851,17.6615142 38.0846204,17.6177831 C38.0042382,17.5738408 37.9215229,17.5520809 37.8364747,17.5520809 M37.5700892,18.3918439 L37.5700892,17.7407371 L37.7953292,17.7407371 C37.8716817,17.7407371 37.9272494,17.7466524 37.961608,17.7593281 C37.9959667,17.7713699 38.0233263,17.7918623 38.0438991,17.8220726 C38.0640477,17.8518604 38.0744401,17.8835496 38.0744401,17.9173514 C38.0744401,17.9650964 38.0574729,18.0065036 38.0231142,18.0415729 C37.9896039,18.0766423 37.9440045,18.0967121 37.8875885,18.1009373 C37.9107063,18.1104441 37.9291582,18.122486 37.9435803,18.1355841 C37.9700916,18.1609355 38.0019052,18.2038215 38.0400815,18.2644534 L38.1196153,18.3918439 L37.9910886,18.3918439 L37.9334,18.2893823 C37.8878006,18.2086805 37.8511089,18.1584003 37.8229009,18.1376968 C37.8036007,18.1231197 37.7753927,18.1155143 37.738701,18.1155143 L37.6765586,18.1155143 L37.6765586,18.3924777 L37.5705134,18.3924777 M37.6757102,18.0253058 L37.8038128,18.0253058 C37.8648948,18.0253058 37.9062524,18.0160103 37.9285219,17.9980531 C37.9510035,17.9794622 37.9622443,17.9558009 37.9622443,17.9258018 C37.9622443,17.9063658 37.9571541,17.8890424 37.9463375,17.8742541 C37.9353088,17.8588321 37.9204625,17.8478465 37.9011623,17.8400298 C37.8822862,17.8326357 37.8470792,17.8284105 37.7957534,17.8284105 L37.6761344,17.8284105 L37.6761344,18.0253058" id="use9412" fill="#FCB340"></path>
                </g>
                <g id="g16480" transform="translate(1.111111, 8.761905)">
                    <g id="g13802" transform="translate(0.033008, 0.262270)" fill="#000066">
                        <path d="M14.5366941,6.17245588 L14.6888717,5.11753758 C14.6056899,5.11753758 14.483432,5.15423611 14.3753601,5.15423611 C13.9518423,5.15423611 13.8989671,4.92339052 13.9322398,4.75476144 L14.3495673,2.6330866 L14.9933557,2.6330866 L15.1260596,1.43571487 L14.519284,1.43571487 L14.6428315,0.710162582 L13.3735677,0.710162582 C13.3467432,0.737522059 12.6554961,4.79067075 12.6554961,5.2844567 C12.6554961,6.01513889 13.0576059,6.34029575 13.6247896,6.33516585 C14.0686837,6.33135131 14.4146942,6.20599755 14.5366941,6.17245588 Z" id="path13804"></path>
                        <path d="M14.9219096,4.16153431 C14.9219096,5.91517157 16.0566639,6.33174592 17.0236361,6.33174592 C17.916196,6.33174592 18.3842064,6.12076225 18.3842064,6.12076225 L18.5985445,4.92378513 C18.5985445,4.92378513 17.844363,5.23657761 17.2313971,5.23657761 C15.9248627,5.23657761 16.1539028,4.24295507 16.1539028,4.24295507 L18.6639293,4.25071569 C18.6639293,4.25071569 18.8237157,3.44689951 18.8237157,3.11924346 C18.8237157,2.30148448 18.3869146,1.29760212 17.0511054,1.29760212 C15.8277528,1.2978652 14.9219096,2.64229412 14.9219096,4.16153431 Z M17.0557481,2.40881781 C17.7423525,2.40881781 17.6157098,3.19592892 17.6157098,3.25972386 L16.2649408,3.25972386 C16.2649408,3.17817157 16.3924862,2.40881781 17.0557481,2.40881781 Z" id="path13806"></path>
                        <path d="M24.7598001,6.17206127 L24.9776203,4.81934559 C24.9776203,4.81934559 24.380259,5.12464052 23.9707983,5.12464052 C23.1076422,5.12464052 22.7613738,4.45249183 22.7613738,3.73022794 C22.7613738,2.26531209 23.5039486,1.4592598 24.3306079,1.4592598 C24.9506668,1.4592598 25.448081,1.81427533 25.448081,1.81427533 L25.6466856,0.499836601 C25.6466856,0.499836601 25.0593835,0.0672148693 24.4272019,0.0647156863 C22.5256276,0.0570866013 21.4375582,1.40743464 21.4375582,3.7418031 C21.4375582,5.28906046 22.2433254,6.34200572 23.6952022,6.34200572 C24.1056946,6.34200572 24.7598001,6.17206127 24.7598001,6.17206127 Z" id="path13808"></path>
                        <path d="M7.84488066,1.31693791 C7.01061249,1.31693791 6.37120893,1.59040114 6.37120893,1.59040114 L6.19452824,2.65939379 C6.19452824,2.65939379 6.72237793,2.44064951 7.52040722,2.44064951 C7.97345778,2.44064951 8.30489528,2.49260621 8.30489528,2.86814134 C8.30489528,3.09622467 8.26440058,3.18040768 8.26440058,3.18040768 C8.26440058,3.18040768 7.90691235,3.15002288 7.74132256,3.15002288 C6.55356404,3.15002288 5.58388366,3.60803105 5.58388366,4.98889542 C5.58388366,6.07709232 6.30904828,6.32661601 6.75848785,6.32661601 C7.61700126,6.32661601 7.95682142,5.77377042 7.97642395,5.77219199 L7.96649372,6.23098938 C7.96649372,6.23098938 9.03766878,6.23098938 9.03779775,6.23098938 L9.51573836,2.81368546 C9.51573836,1.36350163 8.27562045,1.31693791 7.84488066,1.31693791 Z M8.03033091,4.09182026 C8.05367339,4.30043627 7.97745566,5.28695588 7.24468217,5.28695588 C6.86681762,5.28695588 6.76867601,4.99231536 6.76867601,4.81842484 C6.76867601,4.47853595 6.94961251,4.07090605 7.84101174,4.07090605 C8.0486438,4.07090605 7.99538166,4.08616422 8.03033091,4.09182026 Z" id="path13810"></path>
                        <path d="M10.6543616,6.30136111 C10.9284101,6.30136111 12.4949359,6.37252206 12.4949359,4.72371895 C12.4949359,3.18198611 11.0448646,3.4867549 11.0448646,2.86722059 C11.0448646,2.5591634 11.2812556,2.46208987 11.713414,2.46208987 C11.8848072,2.46208987 12.544845,2.51772958 12.544845,2.51772958 L12.6981832,1.42203513 C12.6981832,1.42216667 12.2710544,1.32456699 11.5756805,1.32456699 C10.6756407,1.32456699 9.76205962,1.69102614 9.76205962,2.9448268 C9.76205962,4.3656781 11.2853825,4.2229616 11.2853825,4.82145016 C11.2853825,5.22092484 10.8598013,5.25380882 10.5317168,5.25380882 C9.96414622,5.25380882 9.45319082,5.05505801 9.45138532,5.06466013 L9.28901964,6.14917402 C9.31855239,6.15838154 9.6338694,6.30136111 10.6543616,6.30136111 Z" id="path13812"></path>
                        <path d="M34.7953924,0.322920752 L34.5755087,1.99461111 C34.5755087,1.99461111 34.1172996,1.34942729 33.4003887,1.34942729 C32.0515541,1.34942729 31.3564381,2.72042647 31.3564381,4.29530637 C31.3564381,5.31207925 31.8521757,6.30872712 32.865188,6.30872712 C33.5939637,6.30872712 33.9980079,5.79034395 33.9980079,5.79034395 L33.9444878,6.23296242 L35.1281195,6.23296242 L36.0575631,0.331996732 L34.7953924,0.322920752 Z M34.2728302,3.5719902 C34.2728302,4.22743382 33.954547,5.10306863 33.295154,5.10306863 C32.8571923,5.10306863 32.6518816,4.72805964 32.6518816,4.13969935 C32.6518816,3.17751389 33.0755283,2.54285294 33.6103421,2.54285294 C34.0480459,2.54285294 34.2728302,2.8493317 34.2728302,3.5719902 Z" id="path13814"></path>
                        <polygon id="path13816" points="1.25727012 6.23782925 1.99791043 1.7827067 2.10675605 6.23782925 2.94489314 6.23782925 4.50858175 1.7827067 3.81591606 6.23782925 5.06145046 6.23782925 6.02055579 0.328971405 4.04198997 0.313581699 2.86506442 3.93134641 2.83282342 0.328971405 1.01958945 0.328971405 0.0466849712 6.23782925"></polygon>
                        <path d="M20.0024468,6.24624755 C20.3565819,4.19231373 20.4827087,2.57021242 21.5154525,2.90615523 C21.6637611,2.11115196 22.0172515,1.41979902 22.1787144,1.08333007 C22.1787144,1.08333007 22.1276447,1.00585539 21.8084587,1.00585539 C21.2635858,1.00585539 20.5360998,2.13364461 20.5360998,2.13364461 L20.6448165,1.43637255 L19.5117387,1.43637255 L18.7529145,6.24611601 L20.0024468,6.24611601 L20.0024468,6.24624755 Z" id="path13818"></path>
                        <g id="use14699" transform="translate(24.928756, 1.315359)">
                            <path d="M2.37938596,0.00157843137 C1.5447309,0.00157843137 0.905327343,0.275041667 0.905327343,0.275041667 L0.728775615,1.34403431 C0.728775615,1.34403431 1.25688323,1.12529003 2.05452563,1.12529003 C2.50770515,1.12529003 2.83901369,1.17724673 2.83901369,1.55278186 C2.83901369,1.7808652 2.79864796,1.8650482 2.79864796,1.8650482 C2.79864796,1.8650482 2.44128869,1.8346634 2.2756989,1.8346634 C1.08781142,1.8346634 0.118259996,2.29267157 0.118259996,3.67353595 C0.118259996,4.76173284 0.843295654,5.01125654 1.29273523,5.01125654 C2.15099071,5.01125654 2.4910688,4.45841095 2.51054236,4.45683252 L2.50048317,4.9156299 L3.57204512,4.9156299 L4.04985677,1.49832598 C4.04998574,0.0481421569 2.80986783,0.00157843137 2.37938596,0.00157843137 Z M2.56457828,2.77646078 C2.5877918,2.9850768 2.51157407,3.97159641 1.77892954,3.97159641 C1.40080707,3.97159641 1.30279442,3.67695588 1.30279442,3.50306536 C1.30279442,3.16317647 1.48360196,2.75554657 2.37513015,2.75554657 C2.58289117,2.75554657 2.529758,2.77080474 2.56457828,2.77646078 Z" id="path13810_1_"></path>
                        </g>
                        <path d="M30.2118825,6.24624755 C30.4063602,4.73516258 30.7662988,2.61375082 31.7247593,2.90615523 C31.872939,2.11115196 31.7300468,2.11325654 31.4109899,2.11325654 C30.86573,2.11325654 30.7450197,2.13351307 30.7450197,2.13351307 L30.8538654,1.43624101 L29.7209165,1.43624101 L28.9620923,6.24611601 L30.2118825,6.24611601 L30.2118825,6.24624755 Z" id="use14701"></path>
                    </g>
                    <g id="g10289" transform="translate(0.386892, 0.000000)" fill="#FFFFFF">
                        <path d="M14.4999394,6.05841422 L14.6522459,5.00362745 C14.5690641,5.00362745 14.4466772,5.03993137 14.3387344,5.03993137 C13.9152166,5.03993137 13.8685316,4.81026961 13.8954851,4.6404567 L14.2376266,2.48826552 L14.881286,2.48826552 L15.0366876,1.32154167 L14.429783,1.32154167 L14.5533305,0.595989379 L13.336684,0.595989379 C13.3098595,0.623348856 12.6184835,4.67662908 12.6184835,5.17015196 C12.6184835,5.90083415 13.0207222,6.22625408 13.5879059,6.22099265 C14.032058,6.2171781 14.3779394,6.09182435 14.4999394,6.05841422 Z" id="path4157"></path>
                        <path d="M14.8854128,4.04736111 C14.8854128,5.80099837 16.0202961,6.21770425 16.9871393,6.21770425 C17.8795702,6.21770425 18.2722656,6.01421814 18.2722656,6.01421814 L18.4866038,4.81737255 C18.4866038,4.81737255 17.8077372,5.12240441 17.1946423,5.12240441 C15.8882369,5.12240441 16.1170191,4.1289134 16.1170191,4.1289134 L18.5895171,4.1289134 C18.5895171,4.1289134 18.7491745,3.32483415 18.7491745,2.9971781 C18.7491745,2.17955065 18.3501599,1.18329739 17.0143507,1.18329739 C15.7909981,1.18356046 14.8854128,2.52798938 14.8854128,4.04736111 Z M17.0189934,2.29464461 C17.7055978,2.29464461 17.5789551,3.08162418 17.5789551,3.14528758 L16.2281861,3.14528758 C16.2281861,3.06399837 16.3558604,2.29464461 17.0189934,2.29464461 Z" id="path4155"></path>
                        <path d="M24.7233033,6.05788807 L24.9409945,4.70504085 C24.9409945,4.70504085 24.3440201,5.01033578 23.9343015,5.01033578 C23.0712743,5.01033578 22.7251349,4.33818709 22.7251349,3.61605474 C22.7251349,2.15113889 23.4677097,1.34521814 24.294369,1.34521814 C24.914299,1.34521814 25.4118421,1.70023366 25.4118421,1.70023366 L25.6104467,0.385794935 C25.6104467,0.385794935 24.8726436,0.0812892157 24.2402041,0.0812892157 C22.8356571,0.0812892157 21.4692834,1.32404085 21.4692834,3.65801471 C21.4692834,5.20566667 22.2070865,6.22783252 23.6589633,6.22783252 C24.0694557,6.22796405 24.7233033,6.05788807 24.7233033,6.05788807 Z" id="path4151"></path>
                        <path d="M7.80838385,1.20263317 C6.97411568,1.20263317 6.33458316,1.47609641 6.33458316,1.47609641 L6.15803143,2.54508905 C6.15803143,2.54508905 6.68588112,2.32634477 7.48378144,2.32634477 C7.936832,2.32634477 8.26826951,2.37830147 8.26826951,2.7538366 C8.26826951,2.98191993 8.22764584,3.06610294 8.22764584,3.06610294 C8.22764584,3.06610294 7.87028657,3.0355866 7.70482575,3.0355866 C6.6526084,3.0355866 5.54725788,3.49359477 5.54725788,4.87445915 C5.54725788,5.96252451 6.2724225,6.21217974 6.72186207,6.21217974 C7.58024652,6.21217974 7.95024426,5.64407598 7.96997575,5.64236601 L7.92986795,6.1165531 L9.00117197,6.1165531 L9.47911258,2.69911765 C9.47911258,1.24932843 8.23912364,1.20263317 7.80838385,1.20263317 Z M8.06902011,3.98514461 C8.09223363,4.19389216 7.94070092,5.17238807 7.20818535,5.17238807 C6.83032081,5.17238807 6.73205023,4.87801062 6.73205023,4.70385703 C6.73205023,4.36423121 6.91298674,3.95646977 7.80451493,3.95646977 C8.01188906,3.95673284 8.03407086,3.97935703 8.06902011,3.98514461 Z" id="path4149"></path>
                        <path d="M10.6177358,6.18718791 C10.8917843,6.18718791 12.4584391,6.25821732 12.4584391,4.60941422 C12.4584391,3.06794444 11.0082388,3.37245016 11.0082388,2.75317892 C11.0082388,2.44485866 11.2446299,2.34778513 11.6766593,2.34778513 C11.8481814,2.34778513 12.5080903,2.40342484 12.5080903,2.40342484 L12.6615574,1.30773039 C12.6615574,1.30786193 12.2344286,1.21026225 11.5390547,1.21026225 C10.6390149,1.21026225 9.72543384,1.57672141 9.72543384,2.83052206 C9.72543384,4.25124183 11.2487567,4.10865686 11.2487567,4.70714542 C11.2487567,5.1066201 10.8231755,5.13910948 10.49522,5.13910948 C9.92764941,5.13910948 9.41656504,4.9404902 9.41475954,4.94996078 L9.25252282,6.03460621 C9.28192662,6.04381373 9.59711465,6.18718791 10.6177358,6.18718791 Z" id="path4145"></path>
                        <path d="M34.8011957,0.219401961 L34.538754,1.88030637 C34.538754,1.88030637 34.0808028,1.23512255 33.3638919,1.23512255 C32.249127,1.23512255 31.3199413,2.6059902 31.3199413,4.18113317 C31.3199413,5.19790605 31.81555,6.19415931 32.8286912,6.19415931 C33.5574668,6.19415931 33.9615111,5.67590768 33.9615111,5.67590768 L33.907991,6.11852614 L35.0913648,6.11852614 L36.0208084,0.217428922 L34.8011957,0.219401961 Z M34.2362044,3.45781699 C34.2362044,4.11326062 33.9180502,4.98876389 33.2583993,4.98876389 C32.8205665,4.98876389 32.6153848,4.61388644 32.6153848,4.02552614 C32.6153848,3.06347222 33.0390315,2.42867974 33.5735873,2.42867974 C34.0115491,2.4285482 34.2362044,2.73542157 34.2362044,3.45781699 Z" id="path4139"></path>
                        <polygon id="path4133" points="1.22077331 6.12365605 1.96141361 1.6685335 2.07013027 6.12365605 2.90839633 6.12365605 4.47208494 1.6685335 3.77941925 6.12365605 5.02495364 6.12365605 5.98418794 0.214666667 4.05811047 0.214666667 2.85861622 3.84019199 2.79619764 0.214666667 1.02075013 0.214666667 0.0477166833 6.12365605"></polygon>
                        <path d="M19.9659499,6.13181127 C20.3200851,4.07774592 20.3857278,2.4098701 21.2308289,2.71516503 C21.3787507,1.92016176 21.5215138,1.61263072 21.6829768,1.27616176 C21.6829768,1.27616176 21.6072749,1.25998284 21.4483912,1.25998284 C20.9035183,1.25998284 20.4998609,2.01920833 20.4998609,2.01920833 L20.6083197,1.32193627 L19.4754998,1.32193627 L18.7165466,6.13181127 L19.9659499,6.13181127 L19.9659499,6.13181127 Z" id="path4131"></path>
                        <g id="use8523" transform="translate(25.148781, 1.183824)">
                            <path d="M2.38183628,0.0188096405 C1.54756811,0.0188096405 0.908035587,0.292272876 0.908035587,0.292272876 L0.731612823,1.36126552 C0.731612823,1.36126552 1.25946251,1.14252124 2.05736283,1.14252124 C2.5104134,1.14252124 2.84159297,1.19447794 2.84159297,1.57001307 C2.84159297,1.79809641 2.80122724,1.88227941 2.80122724,1.88227941 C2.80122724,1.88227941 2.44386797,1.85176307 2.27827818,1.85176307 C1.2261898,1.85176307 0.120839276,2.30977124 0.120839276,3.69063562 C0.120839276,4.77870098 0.845874935,5.02835621 1.29531451,5.02835621 C2.15369895,5.02835621 2.52369669,4.46025245 2.54329922,4.45854248 L2.50344934,4.93272958 C2.50344934,4.93272958 3.57436647,4.93272958 3.57475336,4.93272958 L4.05256502,1.51529412 C4.05269398,0.065504902 2.81257607,0.0188096405 2.38183628,0.0188096405 Z M2.64285944,2.80132108 C2.66607296,3.01006863 2.51441128,3.98856454 1.78163778,3.98856454 C1.40377324,3.98856454 1.30576059,3.69418709 1.30576059,3.5200335 C1.30576059,3.18040768 1.4866971,2.77264624 2.37809632,2.77264624 C2.58547045,2.77290931 2.6075233,2.7955335 2.64285944,2.80132108 Z" id="path4149_1_"></path>
                        </g>
                        <g id="use8525" transform="translate(28.924783, 1.183824)">
                            <path d="M1.25572256,4.94798775 C1.60998669,2.89392239 1.67562937,1.22604657 2.52047259,1.5313415 C2.66865224,0.736338235 2.81154436,0.42880719 2.97287833,0.0923382353 C2.97287833,0.0923382353 2.89717646,0.0761593137 2.7382928,0.0761593137 C2.19341986,0.0761593137 1.78976252,0.835384804 1.78976252,0.835384804 L1.89822125,0.138112745 L0.765401393,0.138112745 L0.00644820045,4.94798775 L1.25572256,4.94798775 L1.25572256,4.94798775 Z" id="path4131_1_"></path>
                        </g>
                        <path d="M36.2329892,5.38968546 C36.3345805,5.38968546 36.4346872,5.41613921 36.5311883,5.46990701 C36.6285377,5.52195424 36.704254,5.59851958 36.7585491,5.6976674 C36.8130564,5.79617001 36.8397798,5.89875897 36.8397798,6.00607949 C36.8397798,6.11210959 36.8130564,6.21448348 36.7593975,6.31234087 C36.7061628,6.41019826 36.6312949,6.48697868 36.5347938,6.54096155 C36.4385048,6.59472934 36.3375498,6.62182831 36.2327771,6.62182831 C36.1271561,6.62182831 36.0262011,6.59472934 35.9297,6.54096155 C35.833411,6.48654854 35.7587552,6.41019826 35.7053084,6.31234087 C35.6510133,6.21448348 35.624502,6.11210959 35.624502,6.00607949 C35.624502,5.89875897 35.6514374,5.79617001 35.7059447,5.6976674 C35.760664,5.59851958 35.8365923,5.52238438 35.9335176,5.46990701 C36.0312913,5.41613921 36.1313979,5.38968546 36.2329892,5.38968546 M36.2329892,5.49119906 C36.147941,5.49119906 36.0648016,5.51356646 35.983571,5.55851634 C35.9025524,5.60239087 35.8395616,5.66583687 35.7939622,5.74885435 C35.7485748,5.83079647 35.7256691,5.91660988 35.7256691,6.00564935 C35.7256691,6.09468882 35.7477265,6.17985702 35.7920534,6.26115393 C35.8372286,6.34223577 35.9000074,6.40589684 35.9810259,6.451707 C36.061196,6.49644181 36.1449717,6.51902429 36.2329892,6.51902429 C36.3203705,6.51902429 36.4047824,6.49644181 36.4849526,6.451707 C36.5651227,6.40589684 36.6279015,6.34223577 36.6724405,6.26115393 C36.7171915,6.1792118 36.7390368,6.09468882 36.7390368,6.00564935 C36.7390368,5.91660988 36.7163432,5.83079647 36.6709558,5.74885435 C36.6257806,5.66583687 36.5627897,5.60239087 36.481347,5.55851634 C36.4007527,5.51378154 36.3182495,5.49119906 36.2329892,5.49119906 M35.9668158,6.34632212 L35.9668158,5.68325763 L36.1918437,5.68325763 C36.2684083,5.68325763 36.3244002,5.6894947 36.3583346,5.7021839 C36.3926933,5.71401281 36.4196287,5.73530486 36.4406257,5.76606004 C36.4611985,5.79660015 36.4715909,5.82864576 36.4715909,5.86305715 C36.4715909,5.91144817 36.4541995,5.95381719 36.4198408,5.98951901 C36.3863306,6.02522083 36.3411553,6.04586766 36.2847393,6.04973894 C36.3072209,6.05963222 36.3258848,6.07146114 36.3403069,6.08479555 C36.3663941,6.11103423 36.3986318,6.15490876 36.4368081,6.21620405 L36.5167661,6.34610705 L36.3876031,6.34610705 L36.3301266,6.24179752 C36.2843151,6.15942525 36.2476235,6.10823831 36.2196275,6.0873764 C36.2003273,6.07210635 36.1721193,6.06457886 36.1350035,6.06457886 L36.0732852,6.06457886 L36.0732852,6.34653719 L35.9668158,6.34632212 M36.0724368,5.9731736 L36.2005394,5.9731736 C36.2618335,5.9731736 36.3031911,5.96392554 36.3252485,5.94542942 C36.347518,5.92736344 36.359183,5.90263025 36.359183,5.87187507 C36.359183,5.85230359 36.3538807,5.83466775 36.3432762,5.81982784 C36.3324596,5.80391257 36.3174012,5.7925138 36.298101,5.78455617 C36.2788007,5.77702867 36.24423,5.77315739 36.19248,5.77315739 L36.0726489,5.77315739 L36.0726489,5.9731736" id="text9407"></path>
                    </g>
                </g>
            </g>
        </g>
    </g>
</svg>