<svg id="圖層_1" data-name="圖層 1" xmlns="http://www.w3.org/2000/svg" viewBox="0 0 100 100"><title>logo圖檔（粉專）</title><g id="Group_3506" data-name="Group 3506"><path id="Path_180" data-name="Path 180" d="M2.233,68.043a7.216,7.216,0,0,1-.024-1.394c.039-.467.082-.941.129-1.418.067-.459.126-.926.175-1.4s.113-.945.2-1.4q.162-.687.353-1.388t.385-1.414a.7.7,0,0,0-.435.008c-.133.048-.267.091-.408.128-.239.095-.493.2-.753.315l-.347.114c-.111.038-.223.076-.344.115-.141.037-.272.07-.393.1s-.241.06-.359.1a.544.544,0,0,1-.145-.332.168.168,0,0,1,.154-.177A1.811,1.811,0,0,0,1.16,59.6a1.363,1.363,0,0,1,.739-.332,1.274,1.274,0,0,0,.5-.171c.172-.1.336-.184.5-.262.261-.134.462-.241.6-.317a1.279,1.279,0,0,0,.35-.279,1.842,1.842,0,0,0,.244-.385c.072-.15.16-.362.265-.64a46.907,46.907,0,0,1,2.1-4.438,22.026,22.026,0,0,1,2.807-4.039Q9.9,48,10.617,47.324t1.5-1.292a4.447,4.447,0,0,1,1.013-.655,11.638,11.638,0,0,1,1.1-.446,2.257,2.257,0,0,1,1.615.088,1.413,1.413,0,0,1,.876,1.3,2.007,2.007,0,0,1-.04.6,3.592,3.592,0,0,1-.189.564,7.753,7.753,0,0,1-.833,1.439q-.489.664-1.012,1.314-.639.708-1.338,1.385-1.7,1.677-3.527,3.156T6,57.6a2.142,2.142,0,0,0-.182.13c-.062.049-.122.1-.184.162-.02,0-.049.049-.092.149a.634.634,0,0,1,.137.017.2.2,0,0,0,.133-.012Q8.733,56.93,11.525,55.6a30.63,30.63,0,0,0,5.343-3.264A16.257,16.257,0,0,0,19.8,49.559a26.653,26.653,0,0,0,2.317-3.327,8.853,8.853,0,0,0,.856-2.005,10.759,10.759,0,0,0,.382-2.2,6.209,6.209,0,0,0-.385-2.925,5.592,5.592,0,0,0-3.046-3,7.109,7.109,0,0,0-1.311-.382A10.692,10.692,0,0,0,15.3,35.6a12.728,12.728,0,0,0-3.247.857,16.931,16.931,0,0,0-2.536,1.334,20.322,20.322,0,0,0-2.273,1.7A10.081,10.081,0,0,0,4.9,42.378a12.244,12.244,0,0,0-1.209,3.48A9.415,9.415,0,0,0,3.8,49.812a5.752,5.752,0,0,0,.412,1.249,2.394,2.394,0,0,0,.868.987c.077.042.115.091.114.152a.626.626,0,0,1-.032.239.351.351,0,0,1-.243.116.708.708,0,0,1-.325-.156,2.63,2.63,0,0,1-.82-1.093c-.1-.28-.191-.562-.284-.844a4.035,4.035,0,0,1-.2-.84,13.029,13.029,0,0,1-.1-2.907,10.569,10.569,0,0,1,.647-2.861,12.037,12.037,0,0,1,1.546-2.982,12.251,12.251,0,0,1,2.317-2.4A17.864,17.864,0,0,1,12.18,35.8a12.259,12.259,0,0,1,3.649-.851,10.633,10.633,0,0,1,3.721.408,6.366,6.366,0,0,1,1.515.7,5.81,5.81,0,0,1,1.372,1.192,5.944,5.944,0,0,1,.974,1.647A5.644,5.644,0,0,1,23.8,40.96a11.014,11.014,0,0,1-.463,3.4,12.9,12.9,0,0,1-1.444,3.118,22.349,22.349,0,0,1-7.122,6.943,40.6,40.6,0,0,1-4.591,2.421Q7.822,57.9,5.384,58.815a3.216,3.216,0,0,1-.316.1,2.306,2.306,0,0,0-.315.1,1.034,1.034,0,0,0-.606.332,2.331,2.331,0,0,0-.371.638c-.251.793-.466,1.589-.637,2.383a19.668,19.668,0,0,0-.371,2.449l-.084,1.434q-.042.719-.117,1.435a.759.759,0,0,1-.049.254C2.487,68.031,2.391,68.064,2.233,68.043ZM4.679,57.788a2.593,2.593,0,0,1,.288-.146,2.857,2.857,0,0,0,.287-.145q.969-.7,1.924-1.4T9.1,54.659c.322-.234.635-.479.941-.732s.6-.509.881-.763.556-.5.82-.75.537-.493.822-.749q.791-.733,1.522-1.515a13.342,13.342,0,0,0,1.344-1.7A7.858,7.858,0,0,0,16.21,47a1.006,1.006,0,0,0,.015-.884,1.225,1.225,0,0,0-.681-.594,1.821,1.821,0,0,0-1.254.008,8,8,0,0,0-1.313.561,6.007,6.007,0,0,0-1.168.833,22.223,22.223,0,0,0-5.2,6.466q-.435.864-.836,1.692t-.808,1.693c-.083.158-.159.311-.234.46a.927.927,0,0,0-.055.555Z"/><path id="Path_181" data-name="Path 181" d="M33.592,49.061a.775.775,0,0,0,.028.239.215.215,0,0,1,0,.15,2.254,2.254,0,0,1-.139.267.792.792,0,0,1-.2.206c-.285.255-.608.54-.974.851s-.734.622-1.106.926-.755.589-1.137.862a12.109,12.109,0,0,1-1.091.7c-.263.134-.518.26-.771.374s-.52.259-.77.408a2.735,2.735,0,0,1-1.231.218,1.279,1.279,0,0,1-.73-.3,1.014,1.014,0,0,1-.362-.678c0-.18,0-.36,0-.539a4.138,4.138,0,0,1,.023-.568,7.353,7.353,0,0,1,.449-1.609,4.507,4.507,0,0,1,.92-1.421,2.469,2.469,0,0,1,1.81-.688,2.671,2.671,0,0,1,.445.067.665.665,0,0,1,.4.9c-.06.16-.122.308-.185.446a1.127,1.127,0,0,1-.247.356,6.454,6.454,0,0,1-2.939,2.105l-.239.115q0,.127-.021.255a.927.927,0,0,0,.011.283.719.719,0,0,0,.246.5.583.583,0,0,0,.52.144c.2-.017.394-.038.584-.066a2.583,2.583,0,0,0,.586-.154,15.023,15.023,0,0,0,1.419-.71,12.348,12.348,0,0,0,1.363-.889c.2-.155.435-.347.7-.572s.538-.454.821-.688.556-.464.819-.689.5-.415.7-.571Zm-7.946,2.648.121,0a.211.211,0,0,0,.089-.014.207.207,0,0,1,.089-.013,6.318,6.318,0,0,0,2.272-1.548,2.786,2.786,0,0,1,.244-.265,1.165,1.165,0,0,0,.214-.3.346.346,0,0,0,.081-.358.381.381,0,0,0-.311-.185,1.049,1.049,0,0,0-.3-.02c-.1.008-.2.022-.3.039a2.363,2.363,0,0,0-1.027.507,3.669,3.669,0,0,0-.733.871,6.13,6.13,0,0,0-.281.624,2.693,2.693,0,0,0-.158.657Z"/><path id="Path_182" data-name="Path 182" d="M39.332,53.048l.879-.792a4.494,4.494,0,0,0,.563-.514l.5-.546,1.766-1.736c.04-.039.079-.078.122-.118a.684.684,0,0,1,.18-.116c.06-.058.146-.057.254,0a.27.27,0,0,1,.161.242.237.237,0,0,1-.109.178c-.07.06-.125.108-.167.148-.221.2-.516.485-.88.868s-.723.731-1.067,1.044q-.334.324-.654.647c-.213.217-.432.432-.655.648l-.578.469L38.467,54.5a7.006,7.006,0,0,1-1.12.834c-.406.242-.817.471-1.239.681a2.7,2.7,0,0,1-.573.229q-.3.085-.6.141a.955.955,0,0,1-1.064-.827,4.1,4.1,0,0,1-.035-1.436,15.169,15.169,0,0,1,.442-2.194q.3-1.087.679-2.127.5-1.368,1.079-2.706t1.226-2.582l.589-1.218a.781.781,0,0,1-.119-.077.2.2,0,0,0-.118-.046,17.931,17.931,0,0,0-1.8,0,8.4,8.4,0,0,0-1.741.271,6.174,6.174,0,0,0-1.052.356,4,4,0,0,0-.91.568c-.236-.083-.294-.214-.171-.392a2.16,2.16,0,0,1,.169-.265.652.652,0,0,1,.226-.208,9.39,9.39,0,0,1,1.3-.531,5.716,5.716,0,0,1,1.351-.261q.69-.109,1.408-.155a11.483,11.483,0,0,1,1.437-.007.364.364,0,0,0,.179.019q.09-.014.24-.042l.928-1.749a1.136,1.136,0,0,0,.116.2.232.232,0,0,1,.058.136,3.254,3.254,0,0,1-.282.773l-.126.3a3.592,3.592,0,0,1-.156.327,8,8,0,0,0,1.313.2,12.262,12.262,0,0,0,1.257.022A17.315,17.315,0,0,0,47.305,41.6a.948.948,0,0,1,.317-.113,1.56,1.56,0,0,0,.315-.085c.118.1.166.194.146.272a.268.268,0,0,1-.154.177,2.03,2.03,0,0,1-.6.288,19.741,19.741,0,0,1-3.234.919,15.347,15.347,0,0,1-3.43.257c-.359-.026-.719-.038-1.078-.035s-.748,0-1.167,0l-.2.324c-.072.118-.149.258-.231.416q-.744,1.453-1.41,2.895t-1.232,2.956a37.37,37.37,0,0,0-1.083,3.813,5.437,5.437,0,0,0-.054,1.287.887.887,0,0,0,.318.708,1.034,1.034,0,0,0,.809.029c.1-.038.2-.076.315-.115s.215-.075.316-.113c.4-.193.806-.407,1.209-.639a6.474,6.474,0,0,0,1.12-.819l1.063-.908Z"/><path id="Path_183" data-name="Path 183" d="M77.04,46.261A.6.6,0,0,1,77,46.7a.768.768,0,0,1-.241.22,4,4,0,0,1-.377.158c-.133.048-.259.09-.379.129q-.54.228-1.068.446c-.352.142-.717.291-1.1.444a1.375,1.375,0,0,1,.024.24.358.358,0,0,0,.027.151,3.651,3.651,0,0,1,.175,1.245,5.017,5.017,0,0,1-.217,1.239,16.258,16.258,0,0,1-.919,2.2A19.55,19.55,0,0,1,71.71,55.24a38.26,38.26,0,0,1-4.252,5.287,25.585,25.585,0,0,1-2.266,2.1,16.97,16.97,0,0,1-2.861,1.942,10.8,10.8,0,0,1-3.057,1.115,4.229,4.229,0,0,1-2.88-.408,1.745,1.745,0,0,1-.962-1.572,3.581,3.581,0,0,1,.095-1.167,5.368,5.368,0,0,1,.392-1.071,6.831,6.831,0,0,1,.556-.977q.7-.948,1.439-1.863A21.232,21.232,0,0,1,59.5,56.86q1.158-1.119,2.387-2.175t2.561-1.992c.265-.175.522-.35.774-.525s.507-.341.771-.5.524-.315.787-.479.525-.325.786-.481q1-.672,2.043-1.237t2.1-1.057a4.184,4.184,0,0,1,.422-.2.671.671,0,0,0,.336-.324,1.018,1.018,0,0,0-.43-.308,4.508,4.508,0,0,0-.52-.157l-1.376-.205c-.461-.069-.915-.124-1.373-.172q-1.2-.111-2.377-.16T64.04,46.76a5.092,5.092,0,0,1-1.91-.393c-.137-.062-.276-.125-.415-.185a1.62,1.62,0,0,1-.385-.247,1.238,1.238,0,0,1-.61-1A3.975,3.975,0,0,1,60.9,43.2c.105-.276.214-.55.331-.818a7.951,7.951,0,0,1,.387-.786,17.319,17.319,0,0,1,5.907-5.886,15.988,15.988,0,0,1,5.061-2.008,5.375,5.375,0,0,1,2.752.106,2.536,2.536,0,0,1,1.067.676,1.494,1.494,0,0,1,.458,1.086,4.761,4.761,0,0,1-.585,2.684,14.838,14.838,0,0,1-4.393,4.954A9.124,9.124,0,0,1,68.8,44.686a3.136,3.136,0,0,1-1.914-.032c-.2-.065-.314-.146-.34-.247a1.634,1.634,0,0,1,.055-.626.249.249,0,0,0,.134.077.279.279,0,0,1,.132.078,1.677,1.677,0,0,0,.743.3,2.3,2.3,0,0,0,.78-.032c.28-.095.558-.185.828-.271a5.853,5.853,0,0,0,.828-.33,11.134,11.134,0,0,0,2.936-1.909,15.052,15.052,0,0,0,2.291-2.64,9.257,9.257,0,0,0,.77-1.274,2.376,2.376,0,0,0,.294-.728,6.044,6.044,0,0,0,.119-.793,1.587,1.587,0,0,0-.338-1.263,2.034,2.034,0,0,0-.977-.614,4.85,4.85,0,0,0-1.343-.2,4.587,4.587,0,0,0-.75.047c-.238.037-.478.082-.719.138A16.572,16.572,0,0,0,64.872,38.3a22.954,22.954,0,0,0-1.646,1.77,12.311,12.311,0,0,0-1.351,1.982,6.137,6.137,0,0,0-.326.667c-.093.228-.193.452-.294.669a1.563,1.563,0,0,0-.1.312,1.811,1.811,0,0,0-.036.345,1.631,1.631,0,0,0,.148,1.019,1.97,1.97,0,0,0,.812.673,3.863,3.863,0,0,0,.967.3q.491.084,1,.151c.279.026.543.044.792.058s.514.025.792.03a20.075,20.075,0,0,1,2.081.08q1.029.091,2.077.17c.279.044.552.085.822.118a7.892,7.892,0,0,1,.821.149,3.744,3.744,0,0,1,.965.329,6.449,6.449,0,0,1,.874.541,11.919,11.919,0,0,0,1.852-.717A9.7,9.7,0,0,1,77.04,46.261Zm-3.9,2.15c-.1.038-.194.072-.285.1s-.186.063-.286.1q-1.177.548-2.324,1.127a20.85,20.85,0,0,0-2.237,1.31c-.325.213-.646.417-.968.61s-.657.4-1,.611c-.223.157-.455.312-.7.467s-.475.312-.7.468a31.971,31.971,0,0,0-2.807,2.167q-1.322,1.145-2.6,2.439a17.412,17.412,0,0,0-1.464,1.666q-.673.872-1.285,1.819a4.359,4.359,0,0,0-.6,1.547,1.848,1.848,0,0,0,.126,1.289,1.752,1.752,0,0,0,1.065.8,2.519,2.519,0,0,0,.807.133,7.58,7.58,0,0,0,2.759-.327,11.094,11.094,0,0,0,2.5-1.17,12.845,12.845,0,0,0,1.092-.8c.343-.283.689-.562,1.031-.836a24.278,24.278,0,0,0,2.481-2.383q1.143-1.269,2.185-2.626.793-1.036,1.532-2.1a13.944,13.944,0,0,0,1.264-2.253,9.736,9.736,0,0,0,.437-1.025q.188-.522.378-1.057a1.635,1.635,0,0,0,.1-.807,4.356,4.356,0,0,0-.195-.811.809.809,0,0,0-.145-.211,1.3,1.3,0,0,1-.179-.239Z"/><path id="Path_184" data-name="Path 184" d="M80.828,47.015a1.454,1.454,0,0,1-.064.223c-.042.129-.089.274-.143.432s-.1.3-.141.431-.054.2-.035.225l.877-.494a6.449,6.449,0,0,1,.906-.375,1.011,1.011,0,0,1,.791.1,1.44,1.44,0,0,1,.572.639l.111.51q.723-.316,1.477-.588A5.455,5.455,0,0,1,86.71,47.8c.219,0,.344.072.371.2s-.048.214-.23.252a2.464,2.464,0,0,1-.421.128,3.267,3.267,0,0,0-.39.1l-1.9.625a1.451,1.451,0,0,0-.852.914,6.575,6.575,0,0,1-.912,1.7,10.586,10.586,0,0,1-1.3,1.429,10.1,10.1,0,0,1-.907.642.768.768,0,0,1-.394.175.521.521,0,0,1-.415-.158.49.49,0,0,1-.191-.333,2.256,2.256,0,0,1,.024-.418,2.58,2.58,0,0,1,.327-.818,6.034,6.034,0,0,1,.506-.694A14.9,14.9,0,0,1,81.16,50.4a7.562,7.562,0,0,1,1.3-.967L83.128,49a.7.7,0,0,0-.164-.81.864.864,0,0,0-.808-.1,6.674,6.674,0,0,0-1.419.709,2.366,2.366,0,0,0-.918,1.286l-.194.745q-.408,1.251-.836,2.515t-.955,2.513l-.1.3a.992.992,0,0,0,.447.188.429.429,0,0,1-.112.372,3.256,3.256,0,0,1-.289.248,1.968,1.968,0,0,0-.532.544c-.132.207-.261.431-.386.668l-2.027,4.814c-.187.4-.376.787-.574,1.172s-.4.776-.6,1.173c-.1.157-.211.315-.323.471a4.816,4.816,0,0,1-.382.473.3.3,0,0,1-.331.085.377.377,0,0,1-.236-.274,2.348,2.348,0,0,1-.045-.719,11.121,11.121,0,0,1,.31-1.6,12.285,12.285,0,0,1,.52-1.5q.467-.951.975-1.883a10.357,10.357,0,0,1,1.213-1.761,7.685,7.685,0,0,1,.533-.635c.193-.206.4-.417.624-.632a1.516,1.516,0,0,0,.351-.414c.092-.158.181-.317.262-.475q.627-1.485,1.159-2.958t.98-3.019c.061-.218.136-.472.222-.761s.168-.583.253-.893.171-.605.255-.892.16-.533.222-.732a.511.511,0,0,1,.093-.207,1.243,1.243,0,0,1,.185-.236.169.169,0,0,1,.181-.056C80.741,46.735,80.791,46.834,80.828,47.015Zm-4.6,11.505a.215.215,0,0,0-.3.069l-.008.015c-.143.177-.282.349-.427.519a3.571,3.571,0,0,0-.4.577,18.942,18.942,0,0,0-1.34,2.281,11.977,11.977,0,0,0-.9,2.5,4.333,4.333,0,0,0-.085.567,2,2,0,0,0,.065.6,1.389,1.389,0,0,0,.366-.371c.081-.127.155-.251.217-.37q.433-.951.885-1.841t.853-1.812c.208-.454.389-.911.55-1.368s.318-.911.486-1.367a.656.656,0,0,0,.123-.149.174.174,0,0,1-.121.028.116.116,0,0,0,.014.075A.067.067,0,0,1,76.232,58.52Zm3.411-5.15a.949.949,0,0,0,.478-.112c.14-.077.273-.154.4-.232a10.354,10.354,0,0,0,1.276-1.28,7.171,7.171,0,0,0,.985-1.555,1.927,1.927,0,0,0-.054-.3,14.427,14.427,0,0,0-1.532,1.141,6.794,6.794,0,0,0-1.2,1.357,2.642,2.642,0,0,0-.34.621.283.283,0,0,0-.02.165,1.4,1.4,0,0,1,.016.2Z"/><path id="Path_185" data-name="Path 185" d="M90.635,47.511a1.179,1.179,0,0,1-.14.4.334.334,0,0,1-.287.1,2.4,2.4,0,0,0-.793.046,1.733,1.733,0,0,0-.56.259,1.934,1.934,0,0,0-.441.457c-.131.189-.291.4-.474.636a3.832,3.832,0,0,0-.418.771c-.154.357-.264.623-.327.8a2.272,2.272,0,0,0-.133.775c.015.262.134.342.355.247a1.139,1.139,0,0,0,.273-.146c.078-.058.16-.116.241-.176a11.341,11.341,0,0,0,2.22-2.056q.855-1.122,1.71-2.1c.221.024.308.136.265.334a2.907,2.907,0,0,1-.081.3c-.032.1-.057.2-.08.3q-.28.772-.566,1.577c-.187.536-.367,1.062-.534,1.576a2.375,2.375,0,0,0-.22.611c-.044.208-.086.414-.13.612a.967.967,0,0,0-.036.239l0,.268a.927.927,0,0,0,.272.753.814.814,0,0,0,.791.1,6.521,6.521,0,0,0,2.005-.879,18.368,18.368,0,0,0,2.169-1.579,26.293,26.293,0,0,0,2.023-1.9,23.367,23.367,0,0,0,1.6-1.828l.123-.117a.307.307,0,0,0,.1-.014.134.134,0,0,1,.105.018c.02,0,.034.02.043.058a.408.408,0,0,1,.013.091,1.74,1.74,0,0,1-.277.5q-.7.855-1.542,1.755A21.334,21.334,0,0,1,96.14,52a17.7,17.7,0,0,1-1.923,1.436,10.205,10.205,0,0,1-2.024,1.011,2.692,2.692,0,0,1-1.262.249.736.736,0,0,1-.825-.7,5.641,5.641,0,0,1,0-.688,3.2,3.2,0,0,1,.117-.687q.193-.774.447-1.563c.167-.526.338-1.048.506-1.563a1.583,1.583,0,0,1,.076-.223,1.208,1.208,0,0,0,.08-.254c-.059,0-.089-.011-.089-.031l-.856,1.033a12.284,12.284,0,0,1-1.066,1.134q-.579.544-1.185,1.043c-.1.059-.2.122-.305.189a1.439,1.439,0,0,1-.3.16.6.6,0,0,1-.918-.525,2.943,2.943,0,0,1,.071-.777,6,6,0,0,1,.194-.745,8.1,8.1,0,0,1,.684-1.468,3.869,3.869,0,0,1,1.1-1.165,2.3,2.3,0,0,1,.74-.391,1.946,1.946,0,0,1,.884-.06A.8.8,0,0,1,90.635,47.511Z"/></g></svg>