<svg xmlns="http://www.w3.org/2000/svg" xmlns:xlink="http://www.w3.org/1999/xlink" width="215" height="114" viewBox="0 0 215 114">
  <defs>
    <clipPath id="clip-login_logo">
      <rect width="215" height="114"/>
    </clipPath>
  </defs>
  <g id="login_logo" clip-path="url(#clip-login_logo)">
    <g id="Group_2" data-name="Group 2" transform="translate(-0.197 8.319)">
      <g id="icon-02" transform="translate(19.563 50.613)" opacity="0.999">
        <path id="Path_30055" data-name="Path 30055" d="M33.269,18.124l-4.74-3.869a.177.177,0,0,1,0-.118V9.56a.4.4,0,0,0-.413-.413H25.9a.413.413,0,0,0-.413.413v1.89a.162.162,0,0,1-.266.133L21.161,8.349a1.27,1.27,0,0,0-1.58,0L9.023,16.825l-1.477,1.24a1.255,1.255,0,0,0,.783,2.245h2.038a.384.384,0,0,1,.384.384v9.894a1.255,1.255,0,0,0,1.27,1.255H29.238a1.255,1.255,0,0,0,1.255-1.255V20.694a.384.384,0,0,1,.384-.384h1.595a1.255,1.255,0,0,0,.8-2.185Z" transform="translate(2.997 3.48)" fill="none" stroke="#e8a985" stroke-linecap="round" stroke-linejoin="round" stroke-width="1.25"/>
        <path id="Path_30056" data-name="Path 30056" d="M17.525,23.916C17.333,23.8,12.8,20.963,12.8,18.01a2.584,2.584,0,0,1,4.843-1.24,2.584,2.584,0,0,1,4.843,1.24c0,2.953-4.533,5.729-4.725,5.907l-.118.074Z" transform="translate(5.732 6.991)" fill="none" stroke="#e8a985" stroke-linecap="round" stroke-linejoin="round" stroke-width="1.25"/>
        <ellipse id="Ellipse_3010" data-name="Ellipse 3010" cx="2.141" cy="2.614" rx="2.141" ry="2.614" transform="translate(81.885 29.797) rotate(-23.55)" fill="none" stroke="#e8a985" stroke-linecap="round" stroke-linejoin="round" stroke-width="1.25"/>
        <ellipse id="Ellipse_3011" data-name="Ellipse 3011" cx="2.614" cy="2.141" rx="2.614" ry="2.141" transform="translate(76.017 32.871) rotate(-66.45)" fill="none" stroke="#e8a985" stroke-linecap="round" stroke-linejoin="round" stroke-width="1.25"/>
        <line id="Line_496" data-name="Line 496" x2="5.449" y2="10.13" transform="translate(78.573 18.739)" fill="none" stroke="#e8a985" stroke-linecap="round" stroke-linejoin="round" stroke-width="1.25"/>
        <line id="Line_497" data-name="Line 497" x1="5.449" y2="10.13" transform="translate(80.005 18.739)" fill="none" stroke="#e8a985" stroke-linecap="round" stroke-linejoin="round" stroke-width="1.25"/>
        <path id="Path_30057" data-name="Path 30057" d="M53.1,21.36a2.333,2.333,0,0,1-2.51,1.373" transform="translate(23.745 9.813)" fill="none" stroke="#e8a985" stroke-linecap="round" stroke-linejoin="round" stroke-width="1.25"/>
        <path id="Path_30058" data-name="Path 30058" d="M71.716,24.745V28.6a1.211,1.211,0,0,1-1.226,1.211h-8.86A1.211,1.211,0,0,1,60.42,28.6V14.822A4.622,4.622,0,0,1,65.042,10.2H67.05a4.622,4.622,0,0,1,4.622,4.622V17.14" transform="translate(28.431 4.493)" fill="none" stroke="#e8a985" stroke-linecap="round" stroke-linejoin="round" stroke-width="1.25"/>
        <path id="Path_30059" data-name="Path 30059" d="M63.883,7.62h1.846a.783.783,0,0,1,.783.783V11.43H63.1V8.388a.783.783,0,0,1,.783-.768Z" transform="translate(29.708 3.264)" fill="none" stroke="#e8a985" stroke-linecap="round" stroke-linejoin="round" stroke-width="1.25"/>
        <ellipse id="Ellipse_3012" data-name="Ellipse 3012" cx="4.164" cy="4.164" rx="4.164" ry="4.164" transform="translate(93.901 21.324)" fill="none" stroke="#e8a985" stroke-linecap="round" stroke-linejoin="round" stroke-width="1.25"/>
        <path id="Path_30060" data-name="Path 30060" d="M67,16.39a1.654,1.654,0,0,1,1.078.768" transform="translate(31.567 7.444)" fill="none" stroke="#e8a985" stroke-linecap="round" stroke-linejoin="round" stroke-width="1.25"/>
        <ellipse id="Ellipse_3013" data-name="Ellipse 3013" cx="1.55" cy="1.55" rx="1.55" ry="1.55" transform="translate(85.159 10.573)" fill="none" stroke="#e8a985" stroke-linecap="round" stroke-linejoin="round" stroke-width="1.25"/>
        <path id="Path_30061" data-name="Path 30061" d="M102.534,14.824v3h-4v-3H95.52V10.808h3.012v-3h4v3h3v4.017Z" transform="translate(45.162 3.354)" fill="none" stroke="#e8a985" stroke-linecap="round" stroke-linejoin="round" stroke-width="1.25"/>
        <path id="Path_30062" data-name="Path 30062" d="M109.964,30.209a4.268,4.268,0,0,0-2.953-3.514c-3.441-1.226-7.383,2.067-9.3-4.829a.576.576,0,0,1,.4-.724,11.1,11.1,0,0,0,5.478-3.234c1.565-1.875,3.766-5.035,8.86-4.711a8.963,8.963,0,0,1,8.269,9.273c-.1,4.592-4.179,6.807-6.94,4.607s-2.156-6.763-1.107-8.7" transform="translate(46.193 5.911)" fill="none" stroke="#e8a985" stroke-linecap="round" stroke-linejoin="round" stroke-width="1.25"/>
        <ellipse id="Ellipse_3008" data-name="Ellipse 3008" cx="23.376" cy="23.376" rx="23.376" ry="23.376" fill="none" stroke="#e8a985" stroke-miterlimit="10" stroke-width="1.25"/>
        <ellipse id="Ellipse_3009" data-name="Ellipse 3009" cx="23.376" cy="23.376" rx="23.376" ry="23.376" transform="translate(66.007)" fill="none" stroke="#e8a985" stroke-miterlimit="10" stroke-width="1.25"/>
        <ellipse id="Ellipse_3014" data-name="Ellipse 3014" cx="23.376" cy="23.376" rx="23.376" ry="23.376" transform="translate(130.124)" fill="none" stroke="#e8a985" stroke-miterlimit="10" stroke-width="1.25"/>
      </g>
      <g id="Group_1" data-name="Group 1" transform="translate(7.197 -0.002)">
        <path id="Path_30022" data-name="Path 30022" d="M452.121,185.093a2.7,2.7,0,0,1,1.945-4.644,2.54,2.54,0,0,1,2.7,2.7,2.749,2.749,0,0,1-4.644,1.941Zm-.04,25.191V190.85a.374.374,0,0,1,.424-.424h3.207a.372.372,0,0,1,.419.424v19.434a.371.371,0,0,1-.419.419h-3.207A.372.372,0,0,1,452.081,210.284Z" transform="translate(-451.363 -180.449)" fill="#e75f25"/>
        <path id="Path_30023" data-name="Path 30023" d="M466.834,182.924a9.108,9.108,0,0,1,2,6.141,8.912,8.912,0,0,1-1.94,5.991,6.381,6.381,0,0,1-5.1,2.28h-3.966a.149.149,0,0,0-.17.17v12.236a.372.372,0,0,1-.424.419h-3.208a.37.37,0,0,1-.419-.419V181a.37.37,0,0,1,.419-.419h7.558A6.58,6.58,0,0,1,466.834,182.924Zm-3.1,9.832a5.653,5.653,0,0,0,1.053-3.607,5.9,5.9,0,0,0-1.053-3.691,3.333,3.333,0,0,0-2.783-1.372h-3.123a.149.149,0,0,0-.17.17v9.662a.151.151,0,0,0,.17.17h3.123A3.377,3.377,0,0,0,463.731,192.756Z" transform="translate(-442.421 -179.907)" fill="#e75f25"/>
        <path id="Path_30024" data-name="Path 30024" d="M470.913,184.095H461.42a.149.149,0,0,0-.169.17v9.154a.149.149,0,0,0,.169.17h5.821a.378.378,0,0,1,.424.424v2.659a.374.374,0,0,1-.424.419H461.42a.151.151,0,0,0-.169.17v9.2a.149.149,0,0,0,.169.17h9.493a.375.375,0,0,1,.424.424v2.659a.374.374,0,0,1-.424.419H457.619a.37.37,0,0,1-.419-.419V181.017a.372.372,0,0,1,.419-.424h13.294a.375.375,0,0,1,.424.424v2.659A.374.374,0,0,1,470.913,184.095Z" transform="translate(-428.083 -179.875)" fill="#e75f25"/>
        <path id="Path_30025" data-name="Path 30025" d="M476.516,181.017v2.659a.372.372,0,0,1-.424.419h-5.527a.149.149,0,0,0-.17.17V209.71a.37.37,0,0,1-.419.419h-3.207a.372.372,0,0,1-.424-.419V184.264a.149.149,0,0,0-.17-.17h-5.228a.372.372,0,0,1-.424-.419v-2.659a.373.373,0,0,1,.424-.424h15.144A.373.373,0,0,1,476.516,181.017Z" transform="translate(-414.826 -179.875)" fill="#e75f25"/>
        <path id="Path_30026" data-name="Path 30026" d="M478.927,208.019a7.851,7.851,0,0,1-5.717,2.11h-7.043a.372.372,0,0,1-.424-.419V181.017a.373.373,0,0,1,.424-.424h6.455a8.522,8.522,0,0,1,6.011,2.005,7.544,7.544,0,0,1,2.175,5.841q0,4.557-3.253,6.29c-.14.085-.155.155-.04.209a6.982,6.982,0,0,1,2.639,2.828,9.212,9.212,0,0,1,.948,4.3A7.892,7.892,0,0,1,478.927,208.019Zm-9.133-23.754v8.944a.149.149,0,0,0,.169.17h2.7a3.961,3.961,0,0,0,3.083-1.2,4.81,4.81,0,0,0,1.1-3.352,5.1,5.1,0,0,0-1.1-3.482,3.889,3.889,0,0,0-3.083-1.247h-2.7A.149.149,0,0,0,469.794,184.264Zm6.141,21.011a5.543,5.543,0,0,0,1.117-3.711,5.941,5.941,0,0,0-1.1-3.816,3.67,3.67,0,0,0-3.038-1.372h-2.953c-.115,0-.169.055-.169.165v9.877a.151.151,0,0,0,.169.17h2.913A3.817,3.817,0,0,0,475.934,205.275Z" transform="translate(-394.012 -179.875)" fill="#e75f25"/>
        <path id="Path_30027" data-name="Path 30027" d="M471.419,208.169a8.662,8.662,0,0,1-2.09-6.056v-21.1a.373.373,0,0,1,.424-.424h3.207a.372.372,0,0,1,.419.424v21.52a4.934,4.934,0,0,0,.993,3.2,3.18,3.18,0,0,0,2.594,1.227,3.219,3.219,0,0,0,2.639-1.227,4.934,4.934,0,0,0,.993-3.2v-21.52a.372.372,0,0,1,.419-.424h3.207a.373.373,0,0,1,.424.424v21.1a8.6,8.6,0,0,1-2.11,6.056,7.87,7.87,0,0,1-11.119,0Z" transform="translate(-379.71 -179.875)" fill="#e75f25"/>
        <path id="Path_30028" data-name="Path 30028" d="M475.088,208.649a7.478,7.478,0,0,1-2.045-5.462v-1.1a.373.373,0,0,1,.424-.424h3.123a.372.372,0,0,1,.419.424v.888a4.663,4.663,0,0,0,.973,3.1,3.1,3.1,0,0,0,2.489,1.162,3.21,3.21,0,0,0,2.509-1.117,4.757,4.757,0,0,0,.464-5.088,6.182,6.182,0,0,0-1.392-1.666c-.574-.489-1.511-1.217-2.8-2.17a41.687,41.687,0,0,1-3.377-2.744,10.259,10.259,0,0,1-2.07-2.744,7.994,7.994,0,0,1-.843-3.756,7.277,7.277,0,0,1,2.025-5.422,7.916,7.916,0,0,1,10.695.15,7.847,7.847,0,0,1,2.05,5.652v1.058a.372.372,0,0,1-.424.419h-3.123a.37.37,0,0,1-.419-.419v-1.142a4.6,4.6,0,0,0-.973-3.058,3.143,3.143,0,0,0-2.529-1.157,3.088,3.088,0,0,0-2.409,1.033,4.171,4.171,0,0,0-.928,2.888,4.412,4.412,0,0,0,.928,2.848,20.049,20.049,0,0,0,3.587,3.1q2.537,1.9,3.821,3.078a8.812,8.812,0,0,1,1.98,2.6,7.517,7.517,0,0,1,.7,3.352,7.811,7.811,0,0,1-2.065,5.677,7.945,7.945,0,0,1-10.785.04Z" transform="translate(-365.236 -180.146)" fill="#e75f25"/>
        <path id="Path_30029" data-name="Path 30029" d="M476.553,209.71V181.017a.373.373,0,0,1,.424-.424h3.207a.372.372,0,0,1,.419.424V209.71a.37.37,0,0,1-.419.419h-3.207A.372.372,0,0,1,476.553,209.71Z" transform="translate(-350.898 -179.875)" fill="#e75f25"/>
        <path id="Path_30030" data-name="Path 30030" d="M490.507,180.593h3.163a.375.375,0,0,1,.424.424V209.71a.374.374,0,0,1-.424.419h-3.632a.462.462,0,0,1-.464-.334l-7.168-19.285a.109.109,0,0,0-.13-.065.1.1,0,0,0-.085.1l.045,19.16a.374.374,0,0,1-.424.419H478.6a.37.37,0,0,1-.419-.419V181.017a.372.372,0,0,1,.419-.424h3.587a.467.467,0,0,1,.464.339l7.218,19.28c.025.085.07.125.124.1s.085-.06.085-.145V181.017A.373.373,0,0,1,490.507,180.593Z" transform="translate(-344.385 -179.875)" fill="#e75f25"/>
        <path id="Path_30031" data-name="Path 30031" d="M495.908,184.095h-9.493a.149.149,0,0,0-.17.17v9.154a.149.149,0,0,0,.17.17h5.821a.377.377,0,0,1,.424.424v2.659a.374.374,0,0,1-.424.419h-5.821a.151.151,0,0,0-.17.17v9.2a.149.149,0,0,0,.17.17h9.493a.375.375,0,0,1,.424.424v2.659a.374.374,0,0,1-.424.419H482.619a.372.372,0,0,1-.424-.419V181.017a.373.373,0,0,1,.424-.424h13.289a.375.375,0,0,1,.424.424v2.659A.374.374,0,0,1,495.908,184.095Z" transform="translate(-328.396 -179.875)" fill="#e75f25"/>
        <path id="Path_30032" data-name="Path 30032" d="M487.531,208.649a7.458,7.458,0,0,1-2.045-5.462v-1.1a.372.372,0,0,1,.419-.424h3.123a.374.374,0,0,1,.424.424v.888a4.664,4.664,0,0,0,.973,3.1,3.094,3.094,0,0,0,2.484,1.162,3.22,3.22,0,0,0,2.514-1.117,4.756,4.756,0,0,0,.464-5.088,6.37,6.37,0,0,0-1.392-1.666c-.579-.489-1.511-1.217-2.808-2.17a42.444,42.444,0,0,1-3.372-2.744,10.265,10.265,0,0,1-2.07-2.744,7.935,7.935,0,0,1-.843-3.756,7.277,7.277,0,0,1,2.025-5.422,7.916,7.916,0,0,1,10.695.15,7.845,7.845,0,0,1,2.045,5.652v1.058a.37.37,0,0,1-.419.419h-3.123a.372.372,0,0,1-.424-.419v-1.142a4.623,4.623,0,0,0-.968-3.058,3.146,3.146,0,0,0-2.534-1.157,3.085,3.085,0,0,0-2.4,1.033,4.17,4.17,0,0,0-.928,2.888,4.412,4.412,0,0,0,.928,2.848,20.049,20.049,0,0,0,3.587,3.1q2.529,1.9,3.821,3.078a8.894,8.894,0,0,1,1.98,2.6,7.516,7.516,0,0,1,.7,3.352,7.794,7.794,0,0,1-2.07,5.677,7.939,7.939,0,0,1-10.78.04Z" transform="translate(-315.61 -180.146)" fill="#e75f25"/>
        <path id="Path_30033" data-name="Path 30033" d="M490.906,208.649a7.457,7.457,0,0,1-2.045-5.462v-1.1a.372.372,0,0,1,.419-.424H492.4a.374.374,0,0,1,.424.424v.888a4.69,4.69,0,0,0,.968,3.1,3.1,3.1,0,0,0,2.489,1.162,3.227,3.227,0,0,0,2.514-1.117,4.784,4.784,0,0,0,.464-5.088,6.37,6.37,0,0,0-1.392-1.666c-.579-.489-1.516-1.217-2.808-2.17a42.42,42.42,0,0,1-3.372-2.744,10.262,10.262,0,0,1-2.07-2.744,7.932,7.932,0,0,1-.843-3.756,7.278,7.278,0,0,1,2.025-5.422,7.916,7.916,0,0,1,10.695.15,7.844,7.844,0,0,1,2.045,5.652v1.058a.37.37,0,0,1-.419.419H500a.372.372,0,0,1-.424-.419v-1.142a4.622,4.622,0,0,0-.968-3.058,3.146,3.146,0,0,0-2.534-1.157,3.085,3.085,0,0,0-2.4,1.033,4.171,4.171,0,0,0-.928,2.888,4.413,4.413,0,0,0,.928,2.848,20.055,20.055,0,0,0,3.587,3.1q2.529,1.9,3.816,3.078a8.829,8.829,0,0,1,1.985,2.6,7.515,7.515,0,0,1,.7,3.352,7.814,7.814,0,0,1-2.07,5.677,7.939,7.939,0,0,1-10.78.04Z" transform="translate(-302.149 -180.146)" fill="#e75f25"/>
      </g>
    </g>
  </g>
</svg>
