<svg xmlns="http://www.w3.org/2000/svg" xmlns:xlink="http://www.w3.org/1999/xlink" width="31" height="32" viewBox="0 0 31 32">
  <defs>
    <clipPath id="clip-logo-dark">
      <rect width="31" height="32"/>
    </clipPath>
  </defs>
  <g id="logo-dark" clip-path="url(#clip-logo-dark)">
    <g id="Group_1" data-name="Group 1" transform="translate(1.118 1)">
      <path id="Path_30034" data-name="Path 30034" d="M476.043,169.335a3.376,3.376,0,1,0-4.7,3.1v6.317h2.653v-6.317A3.376,3.376,0,0,0,476.043,169.335Z" transform="translate(-458.285 -151.753)" fill="#ea6a2a"/>
      <g id="Group_10523" data-name="Group 10523">
        <path id="Path_30035" data-name="Path 30035" d="M489.557,156.831c-3.862,0-7.333,3.266-8.073,7.6l-.021.117H471.39l-.021-.117c-.74-4.333-4.211-7.6-8.073-7.6h-1.251v29.491h2.278v-27.1l.172.042a6.586,6.586,0,0,1,4.706,6.427,1.142,1.142,0,0,0,1.138,1.143h12.174a1.142,1.142,0,0,0,1.138-1.143,6.584,6.584,0,0,1,4.7-6.427l.174-.042v27.1h2.278V156.831Z" transform="translate(-462.045 -156.831)" fill="#ea6a2a"/>
        <path id="Path_30036" data-name="Path 30036" d="M478.83,173.507a1.035,1.035,0,0,0-1.413.376,1.69,1.69,0,0,1-2.926,0,1.272,1.272,0,0,0-2.031,0,1.691,1.691,0,0,1-2.927,0,1.033,1.033,0,1,0-1.787,1.036,3.741,3.741,0,0,0,5.73.927,3.74,3.74,0,0,0,5.73-.928A1.033,1.033,0,0,0,478.83,173.507Z" transform="translate(-459.094 -148.192)" fill="#ea6a2a"/>
      </g>
    </g>
  </g>
</svg>
