<svg id="圖層_1" data-name="圖層 1" xmlns="http://www.w3.org/2000/svg" viewBox="0 0 256 256"><defs><style>.cls-1{fill:#ea6a2a;}.cls-2{fill:#2d2b30;}</style></defs><title>favicon</title><path class="cls-1" d="M155.752,148.481a27.754,27.754,0,1,0-38.662,25.525v51.922h21.819V174.005A27.759,27.759,0,0,0,155.752,148.481Z"/><path class="cls-2" d="M233.894,9.588c-31.148,0-59.139,26.231-65.112,61.024l-.16.94H87.378l-.16-.94C81.25,35.819,53.26,9.588,22.106,9.588H12.018V246.412H30.385V28.8l1.394.332c21.63,5.138,37.945,27.327,37.945,51.611a9.2,9.2,0,0,0,9.187,9.187h98.178a9.2,9.2,0,0,0,9.187-9.187c0-24.284,16.309-46.473,37.939-51.611l1.394-.332V246.412h18.373V9.588Z"/><path class="cls-2" d="M172.023,212.073a8.5,8.5,0,0,0-11.608,3.092,13.9,13.9,0,0,1-24.064,0A8.494,8.494,0,0,0,128.064,211a8.508,8.508,0,0,0-8.421,4.17,13.9,13.9,0,0,1-24.063,0,8.495,8.495,0,0,0-14.7,8.517A30.861,30.861,0,0,0,128,231.4a30.86,30.86,0,0,0,47.119-7.715A8.495,8.495,0,0,0,172.023,212.073Z"/></svg>